<mxfile host="65bd71144e">
    <diagram id="qWzk4YSBg6SMeH8j4cCK" name="PÃ¡gina-1">
        <mxGraphModel dx="311" dy="574" grid="1" gridSize="10" guides="1" tooltips="1" connect="1" arrows="1" fold="1" page="1" pageScale="1" pageWidth="1169" pageHeight="827" math="0" shadow="0">
            <root>
                <mxCell id="0"/>
                <mxCell id="1" parent="0"/>
                <mxCell id="2" value="User" style="swimlane;fontStyle=0;childLayout=stackLayout;horizontal=1;startSize=26;fillColor=none;horizontalStack=0;resizeParent=1;resizeParentMax=0;resizeLast=0;collapsible=1;marginBottom=0;" parent="1" vertex="1">
                    <mxGeometry x="77.28999999999999" y="186" width="150" height="182" as="geometry"/>
                </mxCell>
                <mxCell id="3" value="+ _id*: ObjectId" style="text;strokeColor=none;fillColor=none;align=left;verticalAlign=top;spacingLeft=4;spacingRight=4;overflow=hidden;rotatable=0;points=[[0,0.5],[1,0.5]];portConstraint=eastwest;" parent="2" vertex="1">
                    <mxGeometry y="26" width="150" height="26" as="geometry"/>
                </mxCell>
                <mxCell id="4" value="+ name*: String" style="text;strokeColor=none;fillColor=none;align=left;verticalAlign=top;spacingLeft=4;spacingRight=4;overflow=hidden;rotatable=0;points=[[0,0.5],[1,0.5]];portConstraint=eastwest;" parent="2" vertex="1">
                    <mxGeometry y="52" width="150" height="26" as="geometry"/>
                </mxCell>
                <mxCell id="5" value="+ email*: String" style="text;strokeColor=none;fillColor=none;align=left;verticalAlign=top;spacingLeft=4;spacingRight=4;overflow=hidden;rotatable=0;points=[[0,0.5],[1,0.5]];portConstraint=eastwest;" parent="2" vertex="1">
                    <mxGeometry y="78" width="150" height="26" as="geometry"/>
                </mxCell>
                <mxCell id="6" value="+ password_hash*: String" style="text;strokeColor=none;fillColor=none;align=left;verticalAlign=top;spacingLeft=4;spacingRight=4;overflow=hidden;rotatable=0;points=[[0,0.5],[1,0.5]];portConstraint=eastwest;" parent="2" vertex="1">
                    <mxGeometry y="104" width="150" height="26" as="geometry"/>
                </mxCell>
                <mxCell id="23" value="+ is_admin*: Boolean" style="text;strokeColor=none;fillColor=none;align=left;verticalAlign=top;spacingLeft=4;spacingRight=4;overflow=hidden;rotatable=0;points=[[0,0.5],[1,0.5]];portConstraint=eastwest;" parent="2" vertex="1">
                    <mxGeometry y="130" width="150" height="26" as="geometry"/>
                </mxCell>
                <mxCell id="7" value="+ created_at*: Date" style="text;strokeColor=none;fillColor=none;align=left;verticalAlign=top;spacingLeft=4;spacingRight=4;overflow=hidden;rotatable=0;points=[[0,0.5],[1,0.5]];portConstraint=eastwest;" parent="2" vertex="1">
                    <mxGeometry y="156" width="150" height="26" as="geometry"/>
                </mxCell>
                <mxCell id="8" value="Assessment" style="swimlane;fontStyle=0;childLayout=stackLayout;horizontal=1;startSize=26;fillColor=none;horizontalStack=0;resizeParent=1;resizeParentMax=0;resizeLast=0;collapsible=1;marginBottom=0;" parent="1" vertex="1">
                    <mxGeometry x="377.29" y="186" width="140" height="208" as="geometry"/>
                </mxCell>
                <mxCell id="9" value="+ _id*: ObjectId" style="text;strokeColor=none;fillColor=none;align=left;verticalAlign=top;spacingLeft=4;spacingRight=4;overflow=hidden;rotatable=0;points=[[0,0.5],[1,0.5]];portConstraint=eastwest;" parent="8" vertex="1">
                    <mxGeometry y="26" width="140" height="26" as="geometry"/>
                </mxCell>
                <mxCell id="15" value="+ user*: ObjectId" style="text;strokeColor=none;fillColor=none;align=left;verticalAlign=top;spacingLeft=4;spacingRight=4;overflow=hidden;rotatable=0;points=[[0,0.5],[1,0.5]];portConstraint=eastwest;" parent="8" vertex="1">
                    <mxGeometry y="52" width="140" height="26" as="geometry"/>
                </mxCell>
                <mxCell id="10" value="+ name*: String" style="text;strokeColor=none;fillColor=none;align=left;verticalAlign=top;spacingLeft=4;spacingRight=4;overflow=hidden;rotatable=0;points=[[0,0.5],[1,0.5]];portConstraint=eastwest;" parent="8" vertex="1">
                    <mxGeometry y="78" width="140" height="26" as="geometry"/>
                </mxCell>
                <mxCell id="11" value="+ object*: String" style="text;strokeColor=none;fillColor=none;align=left;verticalAlign=top;spacingLeft=4;spacingRight=4;overflow=hidden;rotatable=0;points=[[0,0.5],[1,0.5]];portConstraint=eastwest;" parent="8" vertex="1">
                    <mxGeometry y="104" width="140" height="26" as="geometry"/>
                </mxCell>
                <mxCell id="12" value="+ description: String" style="text;strokeColor=none;fillColor=none;align=left;verticalAlign=top;spacingLeft=4;spacingRight=4;overflow=hidden;rotatable=0;points=[[0,0.5],[1,0.5]];portConstraint=eastwest;" parent="8" vertex="1">
                    <mxGeometry y="130" width="140" height="26" as="geometry"/>
                </mxCell>
                <mxCell id="13" value="+ created_at*: Date" style="text;strokeColor=none;fillColor=none;align=left;verticalAlign=top;spacingLeft=4;spacingRight=4;overflow=hidden;rotatable=0;points=[[0,0.5],[1,0.5]];portConstraint=eastwest;" parent="8" vertex="1">
                    <mxGeometry y="156" width="140" height="26" as="geometry"/>
                </mxCell>
                <mxCell id="14" value="+ finished_at: Date" style="text;strokeColor=none;fillColor=none;align=left;verticalAlign=top;spacingLeft=4;spacingRight=4;overflow=hidden;rotatable=0;points=[[0,0.5],[1,0.5]];portConstraint=eastwest;" parent="8" vertex="1">
                    <mxGeometry y="182" width="140" height="26" as="geometry"/>
                </mxCell>
                <mxCell id="22" value="n" style="endArrow=open;html=1;endSize=12;startArrow=diamondThin;startSize=14;startFill=1;edgeStyle=orthogonalEdgeStyle;align=left;verticalAlign=bottom;entryX=1;entryY=0.5;entryDx=0;entryDy=0;" parent="1" source="10" target="5" edge="1">
                    <mxGeometry x="-0.7692" y="-5" relative="1" as="geometry">
                        <mxPoint x="237.29" y="286" as="sourcePoint"/>
                        <mxPoint x="257.28999999999996" y="376" as="targetPoint"/>
                        <mxPoint as="offset"/>
                    </mxGeometry>
                </mxCell>
                <mxCell id="24" value="Answer" style="swimlane;fontStyle=0;childLayout=stackLayout;horizontal=1;startSize=26;fillColor=none;horizontalStack=0;resizeParent=1;resizeParentMax=0;resizeLast=0;collapsible=1;marginBottom=0;" parent="1" vertex="1">
                    <mxGeometry x="657.29" y="186" width="140" height="182" as="geometry"/>
                </mxCell>
                <mxCell id="25" value="+ _id*: ObjectId" style="text;strokeColor=none;fillColor=none;align=left;verticalAlign=top;spacingLeft=4;spacingRight=4;overflow=hidden;rotatable=0;points=[[0,0.5],[1,0.5]];portConstraint=eastwest;" parent="24" vertex="1">
                    <mxGeometry y="26" width="140" height="26" as="geometry"/>
                </mxCell>
                <mxCell id="26" value="+ assessment*: ObjectId" style="text;strokeColor=none;fillColor=none;align=left;verticalAlign=top;spacingLeft=4;spacingRight=4;overflow=hidden;rotatable=0;points=[[0,0.5],[1,0.5]];portConstraint=eastwest;" parent="24" vertex="1">
                    <mxGeometry y="52" width="140" height="26" as="geometry"/>
                </mxCell>
                <mxCell id="27" value="+ question*: ObjectId" style="text;strokeColor=none;fillColor=none;align=left;verticalAlign=top;spacingLeft=4;spacingRight=4;overflow=hidden;rotatable=0;points=[[0,0.5],[1,0.5]];portConstraint=eastwest;" parent="24" vertex="1">
                    <mxGeometry y="78" width="140" height="26" as="geometry"/>
                </mxCell>
                <mxCell id="28" value="+ answer*: String" style="text;strokeColor=none;fillColor=none;align=left;verticalAlign=top;spacingLeft=4;spacingRight=4;overflow=hidden;rotatable=0;points=[[0,0.5],[1,0.5]];portConstraint=eastwest;" parent="24" vertex="1">
                    <mxGeometry y="104" width="140" height="26" as="geometry"/>
                </mxCell>
                <mxCell id="29" value="+ comment: String" style="text;strokeColor=none;fillColor=none;align=left;verticalAlign=top;spacingLeft=4;spacingRight=4;overflow=hidden;rotatable=0;points=[[0,0.5],[1,0.5]];portConstraint=eastwest;" parent="24" vertex="1">
                    <mxGeometry y="130" width="140" height="26" as="geometry"/>
                </mxCell>
                <mxCell id="30" value="+ answered_at*: Date" style="text;strokeColor=none;fillColor=none;align=left;verticalAlign=top;spacingLeft=4;spacingRight=4;overflow=hidden;rotatable=0;points=[[0,0.5],[1,0.5]];portConstraint=eastwest;" parent="24" vertex="1">
                    <mxGeometry y="156" width="140" height="26" as="geometry"/>
                </mxCell>
                <mxCell id="31" value="1" style="endArrow=open;html=1;endSize=12;startArrow=diamondThin;startSize=14;startFill=1;edgeStyle=orthogonalEdgeStyle;align=left;verticalAlign=bottom;entryX=1;entryY=0.5;entryDx=0;entryDy=0;exitX=0;exitY=0.5;exitDx=0;exitDy=0;" parent="1" source="27" target="10" edge="1">
                    <mxGeometry x="-0.8429" y="-5" relative="1" as="geometry">
                        <mxPoint x="607.29" y="276" as="sourcePoint"/>
                        <mxPoint x="617.29" y="346" as="targetPoint"/>
                        <mxPoint as="offset"/>
                    </mxGeometry>
                </mxCell>
                <mxCell id="32" value="Question" style="swimlane;fontStyle=0;childLayout=stackLayout;horizontal=1;startSize=26;fillColor=none;horizontalStack=0;resizeParent=1;resizeParentMax=0;resizeLast=0;collapsible=1;marginBottom=0;" parent="1" vertex="1">
                    <mxGeometry x="637.29" y="506" width="180" height="156" as="geometry"/>
                </mxCell>
                <mxCell id="33" value="+ _id*: ObjectId" style="text;strokeColor=none;fillColor=none;align=left;verticalAlign=top;spacingLeft=4;spacingRight=4;overflow=hidden;rotatable=0;points=[[0,0.5],[1,0.5]];portConstraint=eastwest;" parent="32" vertex="1">
                    <mxGeometry y="26" width="180" height="26" as="geometry"/>
                </mxCell>
                <mxCell id="34" value="+ criterion*: ObjectId" style="text;strokeColor=none;fillColor=none;align=left;verticalAlign=top;spacingLeft=4;spacingRight=4;overflow=hidden;rotatable=0;points=[[0,0.5],[1,0.5]];portConstraint=eastwest;" parent="32" vertex="1">
                    <mxGeometry y="52" width="180" height="26" as="geometry"/>
                </mxCell>
                <mxCell id="38" value="+ order*: Number" style="text;strokeColor=none;fillColor=none;align=left;verticalAlign=top;spacingLeft=4;spacingRight=4;overflow=hidden;rotatable=0;points=[[0,0.5],[1,0.5]];portConstraint=eastwest;" parent="32" vertex="1">
                    <mxGeometry y="78" width="180" height="26" as="geometry"/>
                </mxCell>
                <mxCell id="35" value="+ enunciation*: String" style="text;strokeColor=none;fillColor=none;align=left;verticalAlign=top;spacingLeft=4;spacingRight=4;overflow=hidden;rotatable=0;points=[[0,0.5],[1,0.5]];portConstraint=eastwest;" parent="32" vertex="1">
                    <mxGeometry y="104" width="180" height="26" as="geometry"/>
                </mxCell>
                <mxCell id="36" value="+ glossary_refs: [ObjectId]" style="text;strokeColor=none;fillColor=none;align=left;verticalAlign=top;spacingLeft=4;spacingRight=4;overflow=hidden;rotatable=0;points=[[0,0.5],[1,0.5]];portConstraint=eastwest;" parent="32" vertex="1">
                    <mxGeometry y="130" width="180" height="26" as="geometry"/>
                </mxCell>
                <mxCell id="37" value="1" style="endArrow=open;html=1;endSize=12;startArrow=diamondThin;startSize=14;startFill=0;edgeStyle=orthogonalEdgeStyle;align=left;verticalAlign=bottom;exitX=0.505;exitY=1.003;exitDx=0;exitDy=0;exitPerimeter=0;" parent="1" source="30" target="32" edge="1">
                    <mxGeometry x="-0.7495" y="-14" relative="1" as="geometry">
                        <mxPoint x="597.29" y="456" as="sourcePoint"/>
                        <mxPoint x="732.29" y="506" as="targetPoint"/>
                        <mxPoint as="offset"/>
                    </mxGeometry>
                </mxCell>
                <mxCell id="39" value="Criterion" style="swimlane;fontStyle=0;childLayout=stackLayout;horizontal=1;startSize=26;fillColor=none;horizontalStack=0;resizeParent=1;resizeParentMax=0;resizeLast=0;collapsible=1;marginBottom=0;" parent="1" vertex="1">
                    <mxGeometry x="937.29" y="506" width="140" height="130" as="geometry"/>
                </mxCell>
                <mxCell id="40" value="+ _id*: ObjectId" style="text;strokeColor=none;fillColor=none;align=left;verticalAlign=top;spacingLeft=4;spacingRight=4;overflow=hidden;rotatable=0;points=[[0,0.5],[1,0.5]];portConstraint=eastwest;" parent="39" vertex="1">
                    <mxGeometry y="26" width="140" height="26" as="geometry"/>
                </mxCell>
                <mxCell id="41" value="+ order*: Number" style="text;strokeColor=none;fillColor=none;align=left;verticalAlign=top;spacingLeft=4;spacingRight=4;overflow=hidden;rotatable=0;points=[[0,0.5],[1,0.5]];portConstraint=eastwest;" parent="39" vertex="1">
                    <mxGeometry y="52" width="140" height="26" as="geometry"/>
                </mxCell>
                <mxCell id="42" value="+ name*: String" style="text;strokeColor=none;fillColor=none;align=left;verticalAlign=top;spacingLeft=4;spacingRight=4;overflow=hidden;rotatable=0;points=[[0,0.5],[1,0.5]];portConstraint=eastwest;" parent="39" vertex="1">
                    <mxGeometry y="78" width="140" height="26" as="geometry"/>
                </mxCell>
                <mxCell id="43" value="+ description*: String" style="text;strokeColor=none;fillColor=none;align=left;verticalAlign=top;spacingLeft=4;spacingRight=4;overflow=hidden;rotatable=0;points=[[0,0.5],[1,0.5]];portConstraint=eastwest;" parent="39" vertex="1">
                    <mxGeometry y="104" width="140" height="26" as="geometry"/>
                </mxCell>
                <mxCell id="44" value="1" style="endArrow=open;html=1;endSize=12;startArrow=diamondThin;startSize=14;startFill=1;edgeStyle=orthogonalEdgeStyle;align=left;verticalAlign=bottom;entryX=0.013;entryY=0.051;entryDx=0;entryDy=0;entryPerimeter=0;exitX=1.007;exitY=0.066;exitDx=0;exitDy=0;exitPerimeter=0;" parent="1" source="38" target="42" edge="1">
                    <mxGeometry x="-0.9469" y="5" relative="1" as="geometry">
                        <mxPoint x="887.29" y="626" as="sourcePoint"/>
                        <mxPoint x="804.29" y="570.71" as="targetPoint"/>
                        <mxPoint as="offset"/>
                    </mxGeometry>
                </mxCell>
                <mxCell id="49" value="Glossary" style="swimlane;fontStyle=0;childLayout=stackLayout;horizontal=1;startSize=26;fillColor=none;horizontalStack=0;resizeParent=1;resizeParentMax=0;resizeLast=0;collapsible=1;marginBottom=0;" parent="1" vertex="1">
                    <mxGeometry x="377.29" y="506" width="140" height="104" as="geometry"/>
                </mxCell>
                <mxCell id="50" value="+ _id*: ObjectId" style="text;strokeColor=none;fillColor=none;align=left;verticalAlign=top;spacingLeft=4;spacingRight=4;overflow=hidden;rotatable=0;points=[[0,0.5],[1,0.5]];portConstraint=eastwest;" parent="49" vertex="1">
                    <mxGeometry y="26" width="140" height="26" as="geometry"/>
                </mxCell>
                <mxCell id="51" value="+ entry*: String" style="text;strokeColor=none;fillColor=none;align=left;verticalAlign=top;spacingLeft=4;spacingRight=4;overflow=hidden;rotatable=0;points=[[0,0.5],[1,0.5]];portConstraint=eastwest;" parent="49" vertex="1">
                    <mxGeometry y="52" width="140" height="26" as="geometry"/>
                </mxCell>
                <mxCell id="52" value="+ description*: String" style="text;strokeColor=none;fillColor=none;align=left;verticalAlign=top;spacingLeft=4;spacingRight=4;overflow=hidden;rotatable=0;points=[[0,0.5],[1,0.5]];portConstraint=eastwest;" parent="49" vertex="1">
                    <mxGeometry y="78" width="140" height="26" as="geometry"/>
                </mxCell>
                <mxCell id="54" value="n" style="endArrow=open;html=1;endSize=12;startArrow=diamondThin;startSize=14;startFill=0;edgeStyle=orthogonalEdgeStyle;align=left;verticalAlign=bottom;exitX=1;exitY=0.5;exitDx=0;exitDy=0;entryX=0;entryY=0.5;entryDx=0;entryDy=0;" parent="1" source="51" target="34" edge="1">
                    <mxGeometry x="-0.9" y="4" relative="1" as="geometry">
                        <mxPoint x="527.29" y="570.71" as="sourcePoint"/>
                        <mxPoint x="587.29" y="571" as="targetPoint"/>
                        <mxPoint as="offset"/>
                    </mxGeometry>
                </mxCell>
                <mxCell id="69" style="edgeStyle=none;html=1;entryX=0.572;entryY=0.123;entryDx=0;entryDy=0;entryPerimeter=0;" parent="1" edge="1">
                    <mxGeometry relative="1" as="geometry">
                        <mxPoint x="430" y="44" as="sourcePoint"/>
                        <mxPoint x="169.92622576032386" y="186.8895433153425" as="targetPoint"/>
                    </mxGeometry>
                </mxCell>
                <mxCell id="71" style="edgeStyle=none;html=1;entryX=0.414;entryY=0.007;entryDx=0;entryDy=0;entryPerimeter=0;" parent="1" source="66" target="8" edge="1">
                    <mxGeometry relative="1" as="geometry">
                        <mxPoint x="493.49721016490867" y="152.8571428571429" as="targetPoint"/>
                    </mxGeometry>
                </mxCell>
                <mxCell id="73" style="edgeStyle=none;html=1;entryX=0.25;entryY=0;entryDx=0;entryDy=0;" parent="1" target="24" edge="1">
                    <mxGeometry relative="1" as="geometry">
                        <mxPoint x="470" y="44" as="sourcePoint"/>
                    </mxGeometry>
                </mxCell>
                <mxCell id="66" value="Evaluator" style="shape=umlActor;verticalLabelPosition=bottom;verticalAlign=top;html=1;" parent="1" vertex="1">
                    <mxGeometry x="432.29" y="14" width="30" height="60" as="geometry"/>
                </mxCell>
                <mxCell id="74" value="" style="shape=stencil(lVzblhwnDPyafeUA4vrsJP/hc7yO98Tx+tjO7e8jsqFnKE0XM2/OptRNC5BUhZgneff90/uvz0/Rf//x7fW3579ePvz49CQ/PcX48uXT87eXH/qvJ/n5Sd59fP32/Ou31z++fHj776/vB3L86/fXP8cT/n6zC9XlOqyi/+ftL96V9t8ffnnDf375suIlPYIvrgfAt0DxcR1PcIHhs+sC+P8fcIaPHfBZCD6hf4JrkeDF1RUfXSgEH10vgM+e4kMGfGP+Dy75BS8usvF7VxGfOd4nwDfyvd2l1T3JhX4Ob64ngGfytc2l1ZnZeeLM5nwEeCJrp7riAd7J0qlz4ie8uETGXlxdB6P2xPG6TwrAWzqHZ9fWsbf5MSdwWZ+u80Z2YcJp0mURKT6vo9FlGshwkvPrcHQbeOJ6cWX1pW5LT8Yjc7QHPtGoo3sOgk52gayc6BL4p0wHn+A9BB1deyxKuQrjPzbOCT6teI3KwqKOC+v49S8ln+O966v/1cOBjEeDDgQ1vs89BmXdDp7402Nc0N3Coqx6A57P/an41Z+ibySb1+PmleA69Wdc/Sm6wknYVDwEcd3Q1J+hrfjqPMev8yXqH+rPsO6X5Ge0O8Ov/kxxrpATvF+Tekpzh57hIQsVmtVNkktt439MLLpiSTzxM00d+DhX4H3jyWnOyH3+zJq66PNhvWUef3T9r+shdxrfzP4tvGrzs6Y48JsqxqTePFfgCT6v31sK3Y9aA67fW3Q9kPgQZ3Y4kjXPj3FWCgde4+0j+ahGWg0IxvMqtCoXl9bvrWmWiSd4qDZqdpnsl2T8U2bGPKsf1v1e6yzrT8oZv67/2mg+ylilKr6TeKjVFYyn03ilxds6v43HhzI51oHn+6XO6ugK38nzK5Z7TVkI8Y9Gg9U/TWYGOSu0PeIZS2izGjnwibK0NqPTgc90f+lsdsQ3sn465vdW6Hj6zA4Hvs6MfMqiChpQWmcqmtZcZjzTlGStu8hKxDArmCuDzmJuQCbePd30WsMnMNBVzaJ0nJvwyoAtI6368xq3epx+O2P7QAS6zNLiTE6Ald15ZaYGkMp6msHgTBCpxoDVNkoVKrg102JUuQJQ/s6rg6DLG4bEw/XQiDoasHg0CA1MnIYo8tGaAdFLlUbgeCS8w6DRmdacAzlfDYQZZCTFnXPuWLFqVwO2vDWMZXhDp2Vg7BgEOuf1SktE0IARM4mYGdSAVgpi3KoGxK3KZHxDg0ZWq2iyNW/oxK3KfYD9Be+pjqTsB/n9zqJj7NtZKGOCHL21CCjVbi0ixvythakMtxZHJr9zOlKepe+dE55MtdR5NZbqjTVYSMRMHevJsY9Y/WkIthoIeUMOKINvtvaFMF4FD1qympnbRJtsJ65Nrfu2QZ6h4tqABPFcTLrmNDsbRbZzHpZNobgz6CaecYPiXbVRnxloqjNeogYRheKdgZjsuzFIU9y71+DWTFODYko/nhuLYShqwM4llJBH84ZEFl/pqJGM/E52nFJ4DAJtynpnBraCYCx0kH5T1LDCrNqKmldBVVDoUQOW39WgVzRgStUQCgIasAOxmlH70FqRxaVq8zsnZ7Wi+qcG7BCqHlzsqkBuzK3tRgnO+H3tJvLxA4XmMbcPVsAMAjLMvqHUYZZhdxKVIRkENPBsSDK9fsWdqCpga0WhYaYlrGfUgJ3wqQEub5nU/7ZBRuVwQxhbQam68wNcNcAMFKkW2yqKaWrAuJMaYLgPUx+5bdDmyeSVATsOGtqEeQPTr1pHgbv7SfDODEAPUYPIhnTUkFfyBiMq3ZypNF6RDfUDRDuestSgr17aiEDqRIlowGQmNYDSQVdXYgYRk6IueLbj1ACKxMbVCjXAjxZ6lDR2MAyJa93dRI12lFy3DRK2iGi0pR+dUK2onFZrcIfipHLxQQ2ghNOsV9mQCp6AaF5lJ7wjZ8IbNvNgNOYaqcykBiiqe5pF1QBU9cIly0v9dRjwY6tRQ8Ib+DnyoEjrntZamRG/wdrWQFZ4J8LghfCGQNtGhiADPS+cT3cjTmdeGQ+6DaeTXL0bBvAGfvw8FIB1LWV+HjUMVi8p/2UH1leqxGHBE8QNi9Ro8XDLgu/SWxaJTt4tC6Gs45ZFmMev91oIX1K3LDa5zkygcFpwEYkOg0wrgm4SvCQquQyRCN4QKdsaG2ldtcIdexGJDgN+DDyCwerW2Hb7AsTRWHlQbjN3HgZl9i6chkxojUmTpZ4ZgIQchermQ4eHN0TaCTc4Lnz0NrGgaMn1vkFZoV+NawOaTYEABt7NpwbQQRE2J5IZN1BIlOp3I6MGflJli5RwiPtnZRCspRB4kZKsbM6XtxJKVJup2Dz4IXAhXkGIOZinp6qDu2EXJjsj7aYRkB9rKR7iKu9T0gIfigHeZ6h4YHK8pbWbg7wNHbCNR1O3OKVxkNcnETwjlrDP+CZQftQhF85QcIbHxi/erlxMIx0V4UebAuQcugGUTMGe3AggMpf7Bc/SslIpOHYQWhqONhT8XhbblUiZ5zO88qgYH8E3DNTCNdxiqgoq9yiJ6vh8KvkmrIR531oVjCe8r2a0eeHzGY+sAQ+AORtRhgZZhotV1TQmxskdzkR3COhxysVnqr55PiN4xcwv72sqGW+r8H6RkrDI5By4mPnl0lyJqF1E2udWjsspV3jWh+bt+JmANKjlI7db8o35ZWWQMlFoFOa0LleMt/xeQDa3JjZ4cw+CK6PZXmygfaRKc0Ej5H16ynILVEz8zDbgaSS/vaScGC82UKksGeIeaE05Ds7Rn6yvVRk3xH/OsFI1bRX0kMO2CnCxJZmensD7VDMecQSqtyr7T+gfVr8p968P4o3/KT4iedvgA1LiDd5jPNniI/qT4aUb0sPxza7nDR7OHjd4c9tygy+GUu3weHGI4zMKDBt8woaLDV4w/27xSIM5PhqevcMjkaf1ngTkI/zcSkw+DZQviLfrh92DG43FuB6YWqN4uIjiKb8bFygz4JmScqG7FzwT5YYa1RDPxl/xtJTfNo6mWXaLN99L73EUjOe8xXnQafRPZv7M2PHB7wXEjAfcnkrUig/of1avjoudAngm5A8tEG+TM74/6Ld5Pscb/7NTrUG/cX5ZPax4aIXe3NMR6396D1SwvvX0XtKgT+hPVg8POoS37Zl+MugH3uZnetqlHL8THzB/bfEZ53eDTzhfG3x8EO8fwpv6eYsvuD43+GTWA8fLg+MPuJ4ZPnS7vzb4+sj4FW9+nWKDl0fWp+JNPKT4hnrIFl8fxNv1zw4QjysI98UHxZv4Se9FNuxx5PEtVLvf6SFrtfmOxf/9r5XoPy4/dfLx5fPnt19Kuf7/+NMo+qe3n1WRn/8F);fillColor=none;" parent="1" vertex="1">
                    <mxGeometry x="312.2424100167412" y="152.8571428571429" width="541.9048200334822" height="280.9524100167411" as="geometry"/>
                </mxCell>
                <mxCell id="76" style="edgeStyle=none;html=1;" parent="1" target="43" edge="1">
                    <mxGeometry relative="1" as="geometry">
                        <mxPoint x="740" y="757" as="sourcePoint"/>
                        <mxPoint x="898.0757469831199" y="648.4605114855335" as="targetPoint"/>
                    </mxGeometry>
                </mxCell>
                <mxCell id="77" style="edgeStyle=none;html=1;" parent="1" target="36" edge="1">
                    <mxGeometry relative="1" as="geometry">
                        <mxPoint x="715" y="737" as="sourcePoint"/>
                        <mxPoint x="719.6702006075989" y="683.6666564941406" as="targetPoint"/>
                    </mxGeometry>
                </mxCell>
                <mxCell id="78" style="edgeStyle=none;html=1;entryX=0.753;entryY=1.038;entryDx=0;entryDy=0;entryPerimeter=0;" parent="1" target="52" edge="1">
                    <mxGeometry relative="1" as="geometry">
                        <mxPoint x="690" y="757" as="sourcePoint"/>
                        <mxPoint x="559.1042636492716" y="644.2857578822545" as="targetPoint"/>
                    </mxGeometry>
                </mxCell>
                <mxCell id="83" style="edgeStyle=orthogonalEdgeStyle;html=1;entryX=0.683;entryY=1.04;entryDx=0;entryDy=0;entryPerimeter=0;curved=1;" parent="1" target="7" edge="1">
                    <mxGeometry relative="1" as="geometry">
                        <mxPoint x="680" y="767" as="sourcePoint"/>
                        <mxPoint x="170" y="355" as="targetPoint"/>
                        <Array as="points">
                            <mxPoint x="180" y="767"/>
                        </Array>
                    </mxGeometry>
                </mxCell>
                <mxCell id="75" value="Admin" style="shape=umlActor;verticalLabelPosition=bottom;verticalAlign=top;html=1;" parent="1" vertex="1">
                    <mxGeometry x="700.0000000000001" y="747" width="30" height="60" as="geometry"/>
                </mxCell>
                <mxCell id="79" value="" style="shape=stencil(lVvJklw1EPyauSq0L2eW/yACgycwNmHM9vekGPQ8yupO9dzG7cpuPamWzFK9p/TN7+9/+O3dU/S/f/n86Zd3fz3/+OX9U/r2Kcbnj+/ffX7+gr+e0ndP6ZufPn1+9/PnT398/PHl37/9MC3nX79++nN+w98vuJBcGxMV/T8vnxQ3yn8ffP9i/+H5426f6mZfXUjCPrrG9mVIe982++ZiFfbB1UH2zQt778Zu313q0j7u9sMFsf6xnm6Z4wv+f6Cb9t11sg8uiP3vLuTdProo9r+5TPZJPm9ldwjZJfG81UW/2xeXw3374uruDqG6LL6/OE/2zRWxn9mVtNt3V8V+JnaHMFwT+5lcLpt99DJeohv7+qM+r+hy3O2TXH9wYz/fuWNif4IrYbfX+x9WdF/2zfV83967RvszZPx6l/tmn7wr8vvTvj8puB6Vfdj3PyUXhP/Dft+flJfH3rH3+/MmRIT8fr/HS2puiPOy9sN1kd+MfQ7yfM36c3JR7j/tT85uCH82+5+1vyHd7uk/I5/L/Um7/+S+Ivoxfys6P3vO5yU4L/KbX9XnskdBk/vT9/0p2j/x67R+nZ+DS/v5FmRg+f11j6/S5PpN/imop2J/4soGl/2Q8RVd3b+/XjtwJz/7ff01uiLiBdWQvh+ESOSTxPWr5nWC9+rLnj+r5leZ62nF/ovzzS7v8VK7jN/sGj3vkP5Tlrdf9Ern5+LS/rztImj3+MD+vC3KeC+uEz3EeUk+Q3ypZVnf62Ivlz1WKPy5rmi67HV+a5yfW3NJ+Gcz+9mdF/vfFlt4Za/8uXM+aWMxqDv2xB+6XxF0hw9TfenBRbEew597lP4Pek0EBQBFUACouwf1A8PCgumREXRakvT9jHtZVe2e5kn00FUWGXB4nxnQ1JISh31vMi2C9ZNu6DqvgPYnemgIJXHQ4P0xMkBlUhB/OunhZWgCQLVpXNXwNqBz8R66eEMrkBoYV726Xc3grfQLutxPflAYoLx1EnwC5BWCtwGoyAagMsAssXsJHGUltduAvDbxFUBpxFl0CgO6AlSu+qPKLAMAu0ZdxOc2oHFMAzAUb7nS7gVoWvgN8ws6RCGUiFoMTZVTZO4++vrkNiBxTA/dLIFWKpkBUn3jXDsDugK0pa4ugE4zCQXLABThgb6ihtUYsmOV/ao3rwCKYkCR9cAApelyXBTnNUA4HzQcqXAAlEqDiCNvDd7LoM6FifkRUVe2fhjR+OyOiM7Z74gYq5Y/iiimBXFEhNUyfBgRuU4cEYn7pkdEXsTqYURZofYwwrYHTwjbsDwh+oq2hxFjtVweRdSrKfswIrKwPCISt/6OCEPSDmEO7ZlMblOJpFZTMnSqAqCbX5B6qzEdH7ohAH1LHd6hFQsEbvYMUBUACjeaZ1A9TEhcb55BFSUAbNlTXSuI4vqmOglVzK6hKzFkcTAAVeunjjZLUmwCQppadUO3kgGgMD0wIkjvUhkQ1ME17k4OraMAYPfW7V6obyp6ByoL+c0hWqTAhv5mOq47UgC0xoAkvBWKnXoiQ/fIuiWaSbrGlOwE0F07SHZeUlgXabcBmfsuAKiDA4AaEVNtKkBZ+vgVQN78FQ6gPmRfARo/USMCWUOdQzWNCB3T/ZIor9oESlLM/44MUBGHBVAhxSKLuu9EANGSdABhEykeupanABBnxNmr7D3Pldo12r2n55geleorjGB6I35VjHsACqBDGw/xRUURmUo1IgAgxYxsqy7eEPJ009K06p99CtPaVe4NAOVWlMmsHrqw8zV9eQsADRdUHaKoBsSQqy6Kw4iiqhsRqGjU+gOpi8K9AeAbgiSpw9eqfAEO24pHpF/Qd2QAZLpU0xIbANLkRXcjwb+o5VQO3jq4Cwaxo+45htGN0FOKJE5au7tG0Y3qr8T5AgTtGoMPDlI1i+w9Afs5ZM2Mp7yg22J92/dKwVyItgjOoz+hGdaNhzgExOC6m996cjnJp7a+kaO85BmDGwT5cEvS+Rose/3QpjGStESxQZ0OBaLxFUPSDU8AiM4cRieQK0k1JU2NASANnvRl+eTmNG2R1n3XPQD1N1KU40mzt07zKEEqDpTRQbt0qFmJJygACGqXIi8pHopcYBE0m92anQQDkL7kWQRFrfwsh4u6PT9p5WCA1ANt1Y8LoC+GezWTXwceWrnnFw+6zCiOw6wYeC0p8Dmepuh94swHgMre4LWDAPr6HwDy1qjnOyBGqRMS9UACAMTWo+6qgWpzD1nHA6g2nXQ4dHOG6fR1mWbAzemqJxx6LZ1vlIMei7WNjXCYS2jcJAuaYUEuUKMPAHUbCwCNJgQ9OjP1hQEoxdEyE6agQ7SZm8ygRwGgYCKdtNY0LXLmO8zrtmD65ZpWQvKw82lyYvunQcc0JA9fkOiYro0TWdDEtZrZgUMbuzC/0g3dmlnG6eZptfMYckgH+oiKuibF1cysVD1UNTir6sgpjdsHRVIGiCnyUh0GkEY0xaAbiMVM5SW5nyWwBtCKdeoiimPZPcxGToYVRLftm5milwFgr0a97HFB4ZCm1zUQAof208vEmA2H9HKACfKGUrWmnFA3pAp1q3TOPPN6VJ6GVKH9P9g3bokf7Cvfrx/soSvSW+wz33wc7c15SXvD64725nylfeQ5kKO99QdlH1wx61f+A8n0Fv+EfWL/Ueoa5aTx86p4iZ3fOtHxCPvI/qPifaoltld3F/OtH96ft81b6fb0nAomRiAbhCgnle3VS1FzypqYnxRz0dyO6sHAKZNIEsgh31l+aNRFT5cFw+9lU2AO+REl08No5oJaD9VOd+F6KmfXPLdytEyEoBr8/aprAvvK3y9f8hv80t5hJrhzvtV8Y8q1QfZyOLbzCLFuK0F7Ub3QQ+6w54ajnPkMjfmM7oBCqdFUuR4RnbO91J6UUyOQXdy5lvl/6jpqvsv8PGUdv+SqGodQdXzfIPOtnZYuqyDcs+e3eE4v3RKf0eOtsKfBucNLfseXgPHH1zeIf3r+8OHlBeTX/89vHOOjl7eV03f/Ag==);fillColor=none;" parent="1" vertex="1">
                    <mxGeometry x="347.4805343191966" y="468.0952671595983" width="220.95236642020092" height="176.19049072265625" as="geometry"/>
                </mxCell>
                <mxCell id="80" value="" style="shape=stencil(lZzbshy3DUW/Rq9dzTv57Dj/4SrLkSqK5ZKV298HjIo9MxtnFs+8yccbPWgSxGUD7A/ppz8//fLHxw/x/PP7t69///jvz79+//Qh/eVDjJ9///Tx2+fv9q8P6ecP6affvn77+LdvX//5+68//vuPXyZy/usfX/81n/CfH3KhHCFMqXj+98df0hHT///w1x/4L59/v8fno+fX8KUqfiA+NMGXAvh0DNWnBcQ7fQY/P5QHfD5iA3xcP3/D14z4+KhPOc4O+HD0IPjM+NQE32n9z7UcC1+PSOtzHqULvtL6n0eogh+g/zjaeIC3I8FyjiNngddK8JAEPuDpXZXpaAt97cwNXuGodLX8fgzYqXb0R93HkWCj2jpGN3iDlWlr1xf8tnFv4m0Xm+LrSfj6aAZmqCe8bT3SUHyBta96bO2gnfE53k5FU3wB/ctRHZ7s2E7p426ZY8mgfzliVDz5qbx+/cJn9Av5aI8HxQLBCe9rT6uKL2APWY95YD+Sjt4VP0CftHb/wrfliJ7gxc0GPrtR3WAYxwmHNy6vd4fv4Eri+vWFj3ZeyC8f49Ee7C/oZ1WfyPYcllu98GlZ7BP8+bietuPkfs6ji/7lSHAebTUEb/YD73uqrzUPFuB9zyMJvqN/ON369OUxnuFl/c3f4vOjpDHsP8+1Ghc+HBns53RpVcRAanjRJ603eoY/H/EZ88LzOEWfgvHlXKfvwtf1Rs/wok9bHuCd+I727/G7/RV85njn8fHILz0/rfzgnXiLOOA/Pb6iv/L4viLyO/ED44vDlxPzWo+Pr9lDSZi8ebxF5JeeX7Eu8njObD2es0l3vuq58c9y3ms4Gq6P+J+aVgR55t8Ez/mM8+e1rIz0Cb48xpfa1hOexSMpi6wYeCXeNVthqgN1v5pFZIy/sp7txfje0spgn+ClXGhWx1Kd6eq0slbsSf4j+UPjutG8n6wP53tx7c6F70eB51uZL/t1lZLP8s/H9exmgWDPSfPJHjAfzmv3L3zE85K1HjF8A/1dvdA5vhetBzvHF6sORP+8eX4/FU/1aV0syYU3DbHezFHx5K+q04f9c1vR8w5PVEJzz2d/3jWf7H1VxE/wwg70sYi+J0yI+NvO/MBY3uCiE9j+w6kH3gQ6E0X58Y1HYObwdCoFLqlOrakGcwQhLBO7E0jkdIPSUSZAXssEhD00gU7Leml8CSTMs0xAHMvYFHpRPcvYRA4L7EUFxoaSlWXNR6CNc5zv4OQgOPZisHcxAaGzBtMjoazq606A/FGoGvBNgAKOCUjGYgJo3k1ThLGhfpvmLKOurXxb4AqpdwJUpIfhDlDlLGespPVOgMpcy7taVwHMQ+zEOZXIL02mp6oAefroOg6jYSifsb+rQKBcpyh5YALkl2b0dCpRdTnDYVGBQi/dnDPm+GYBS51AwwRm0t3uHchVpnM5lUuAKZ8UtDVmAuSXkjljJ0BJjwmMUwWIFU5pua07gUIqZbcPXLekshS4EyDvnaoyq4OZ0tTcPgwMWalrbm4CuKzDRaDBZPhVm90JEPuWvWkw/ZOj8mkm0OkXkiZkU4DeIWuFZALEQGTfkjhP7gFU1wTYSTQtA7YSV4/s3RJjhcH3SpTzZQlHp28losbGrUTSzGwr4Zssewlts+wkiotebFaTx3KnlQzXBLSRyUejNJdrDeQmSn/j8BU4rcU1egc3V8vQLvv0aeCXi09smJ+rp1rg6FiA17D493vPD17TBISimLEFXrrGNdlwH+7oHZIL2dyEq1mr/MEscnXTKZsYX4vL5hr2Hav5QJcJNTC+2pwj50yo9jeSMyoaTeC15KwOZ0ttefa3yYrTxRZmS1twMZ4zUhMYTqUIG9eixomZJBPhkpSh2aThJiAjAYNHVVpWjmlwD9sENP3j2qMVZXFNgFgsE2hOJSqHmq8MmJc1AfV8dcX8ZwKakV5H6m2Bpq2Jcf3mMwGvEnGtJqCsCzcXTcCXpVQpt+6S5HIMWqWu/PIs3mkfvBNggrMNF6cL5rztSonvGQs6D0M5ZhMgjvBGob+TRDGB5mkaUKmHVUjfEUGUzZhAGSpAyUn3NSAPAJqAVvtMZk1iP6kAjqEl7dVNfg1syQSUauLhIxMYVQWoyuzZkbsJ2zMm0IcK4Et7V8kDWrMf0FWg0U5Xl2Bxi94ENF+KOKPSmyN3wzL4ZwJS0o2ArtIENF86sW3a++Lg7wTQWrse0c71g/1v+YXO1f58nrRSOG+dGssvMNVkiyjDKp0D+3BewwQCOOObIVwCPB41+wjSj8s4LzGt//GI2qFtkKzb+UqnCpC1Dt8S5Za0CQjfbN6208ZlTU42TVQT0HfgqSoTkHeYQYz2Ibs+88C5pxlvXmpMW0TTzvTGWou+dNuMWBelXhunPzOzePTe7WKgnwnoS3OHZ+ZfMk6wMT5HTc2KglSqOgDbNqbRlFSsAyPQrHhk0r1hQJl1oczgVJwRm6Xq4z5shmRu1fMlENmRdR27rjyWMhx9V5jMGa5RXZhEmOyym5zCnR7K/hQeTTEBqRQLzy5MdvnxiBYebpr00+M+TIKRVRKaovB41qSjH5c187zqcBctMreEJkn3qFKuK/V9JjBEJc6Mp8Bj2M0JTeOOy7wkOMN6S4ITIK9U4kFv/9qpc+B1C5s2l1iGNoUS1+zTmh7tNRXkQ6eBP9prytis9kco8db5U514tGKSmfLSAXvPs7Mm73CuyPpOZxm5TzXcTE/s7AaaetfdZaiqFfXmNtfkYuSaQWZrdYE38pzXzAVkMJ4nVmZ68nge5t0Geun8xtUHTKZdEhd5NmlkreQCd/NmORxV4CSv4XLjsIlySSclAtPMM79PKkBDAyYgTiBUvFE13JWVsDG+4FTapIlu6DRkzsncFKwJUO95zpy5a1iYfbtacXPPywSkM2wCxK13F6kDZ679akXdCRDj2rumiZu7dr37zjDug6cRAk87m4B0LrlBb+WzDNLxUEIvOq7dsX836SUpH1Zt+gwv9Tq3N+Zwrd6SJTa3uyEjprx70Ik4nn6fdbOkuLzBp3K/fFtkVs16a5pInzY07PDBb85CmQK9DYtfwR8JTSuApazn2x/NTfMlvoxb3PUt7kVlTV4i2qdVy+JUeO50VtdyXQ2T/xa14uHbNFaMi4PgvNz3D9knWu2u10HxfFVnnzwqXN14NLvc2tVfMQ9bnX1yMlurm2DB/lMtiufbUjXrVOSJxHNNWvZvbn9HpZxOrCeq+4oBl7/z8pI+nzKP4gZT+bb7nChRPPWdbhTFHZ70Kcqab+d6qtOHZ43c+m+mmfJL+rjB9+1Ellzf3c58Saa4nSrrr7zvvKwYXsE39YfbSbr6ynrmoincFh/1PCI+q//c4F3Db4tPr9hDjjq3sMWHl54fNL/a4sNL63O++HxXNTA+DZ3K2+BdCbDFx5ee317zP6lq/N3inT9HvMv/N/j8mj2nrPnABp98/N3gvT3TbcSoDUeOR3NSXZ9PXNjt4wLvi4/pVKLqxEEOwxf1VxSv06mDgSfWI/O6mssf6DaCG465JuDexnf9KhPnM/PTQGrPRMBGN3DE+VV0+SR/XSS6epzzPStHm8sn6ZZN1XkPzj/nBRW1B6pnozvvnA/Pj48ExZM+7j4YU5CzfI2KJ/2z1uOc/0d3A44b4fMOktYL1MaLbliS65f5uRzVJ28uUZ2KJ/2jDoXw105ulPJdvUb6B/c5p92tMent8tcPbuZ4hyd9Tvd5Jr6Udmp+zpMU0d2FCtgHDsMR3liPG76q/ht8Uv03+PMVfiB0HTXZ4l09TqzvZPOV38CbxK5+5Nv9oSk/uelrNvWHEZsBhnf8EvE5ho/6vvQ1IcPLBBWT4qH696WJ9uDqqYh8neH1c1E4U2P4pOuD52X7VU37x+2TnL99/vLlxxc97/+/fsLT/vTj85/p5/8B);fillColor=none;" parent="1" vertex="1">
                    <mxGeometry x="605.9566870117187" y="477" width="242.6666259765625" height="206.66665649414062" as="geometry"/>
                </mxCell>
                <mxCell id="81" value="" style="shape=stencil(lVtJchw3EHwNrwjsy1mW/6EIURbDsqiQ5O33TpgBsJGYzh7eyJnK7kKhlqwC5iG8+/H5w7fHB29//Pz+/Pvj308ff35+CL88eP/09fPj96ef+OshvH8I7z49f3/87fvzn18/vvz/7UOX7H/98fxXf8I/LzgXTPUd5e2/L58k4+P/H/z6Iv/l6esqHy3JhybkvWmV5GuS8nnVJ2t9vImJ5KOWt4HkaxXyziS3yBcTlbzl9VZjtXxIJF+EPZspq3maSVaJ27aI9/f5c/lq4rparN8JdYop62q7fbOS95blm3h+NmXdre6vTsn71ZoumizMn0yLq3yS9sS3ZZXP0h3Spg/cp5zLx02fOvz7RJ6ixTWThf7RhHV/PfxV2DOM3Zny3gSx3sD7hU9UuCObrPrDYip8g/GkfzZN2NOzPeHhSejjh7cM+WCl/3vWPzhTpD6kfwgyvSGa1ngJ2HERX47tHy7Sp0mkf9Hp0Pi8yjfpz87Y1f/j/OSmvDV19bfoTRH62/HtlI8miv2yJq37G7NxYr2W9zfCPmK9M7tO+Sbj17I/JNhHrtet9k+zXp7J0/OjcVIf2q80M96ZPLEBxGN4y/Nnxblzve3i+eSf2V08n/Y3+1Fg7/OfHAefuM8/8wVdYntmVEAZ75TPc5X+7Db94Z9Cf8fxWKzJQt6z/ct8wlm+XfNVCcbJ/E/+U+LgoyfyVK9LuqiP/HzYX9Zfyp9lMqKz+k72rLJepO35qO+SL9nV36qV8ZvZPtVJ/yzMJ6s3TtizbM/3kr/VTX8wBOH/dXt+lPxz48OQV/EOdr36c02SP4Ne8wvQ76gAtkzoa5YrBiGnBqwW45RKfjCYA0CtGRTbUgtT9aLD1vNUycpAyittW5NuClZOXWqzetEzbR4ActGwyZpJG7iOUqlub3A6Vbfh+RMALi0AnZoXBjQF8MMmExBkN9Pp9xpuLUp6hvxVLQOyAmQT1gTf0mgBbwOQARwDqgI0LrEt65Kw1UAAmqo5wQTahyKLZkhcBQFQrAWkm8pOq9I1QuW+GwDFk6Mdz5sApELViLrRBxwAQb0h8OigzeR5GxBvvCErlTInYwBksa2j9zkAqlpD2yKuSfoCts4xjUeIeEhhhMvrQGZy6NuISRjvRhROA5eIOoYA9yIyaEV8G8JzK3Jhqhy2wNabAWrttzco/wC3zm/ywE6uLQOUj4Nd72GnkhPoddw8UDXwZevgLwK7eKZMrcoRUJkM7ABQHLRT8g2ghgTg5Jw6qiwSIOU0NG26LQcr3wFJmRX51zLAqcFmG33LoaoowgEAcSAAvDArmHx+U2UElfeNAUGRb8c8DtVdsnU/hlEHgCJNYPOsUpBWqpHH9QBYpVLcaJkfM9jbgDnwPfA4NdIFP/dkpbkztwHwnHUNYLuqiQZ7tmtM4xOpUh288EDxvXpD44Tf2xSxBiyRiB8MrRrFToYJ4GUjhG3K1Pq5YejbAHBb6qV1bwzfjDRsqKMm3QagoKz7gMSTlErJtHXRSG3yDXjeNv+QayhcRZHPFRcFgMyKiqE6J6ReSyO0JvuantxXK2V9ZtHmCdcEzLHCbUDjRaPUqzrdqeqaW3OUSaCXcZqLeTmXaVvXkZ0cXL0yz8MkU51EvLKjCSgyRA8E7DC8bepwcH9FGF3wvYtww4HvNFPUdKZvxBoQsUha2enR6q7oKy7WQFaKflCoM3fNdCZhr/ybDgHQrimy0UOOTnmypMY9qFeV0HJeZAFW6WJOltk1wszPZwDKM0FPEjvbIZX0UVubFwcG4HWadwagfO+r9qXEs4c+71SuEbkE9QGsLkGUyXyStLLTI1p0lG04AGE7gZUh6pkK9KG8cr55AjwBTrZZoAL8BqfN6raNszp9261/bfIYEAAafLkq1wDCVDMDVJsFALHEi5N/cDgiTC5r8j1Peg4ASb7LOPqYAF1GwXSbZ4Bc9EaNXZS5FayTxyH6PA0Amk27SQPP+gG6HwSAOrFAi0J9mdNUAADeBy9DFESYOg7nZLoHEabZdL+VpFSyPC6/usazXSvq5xKqA688i3Pz6PXeDtxUsdEgznRS1mQ3UOJw5dk+yFEfeDbdzKlDwbM5SyWmLtuZfZBTBic9Gy0RtcpjD2/LbyPjbJx6/jYcS+Ni29n0jcpzlOsF/d3k1QgH7JfqVJAHs6nwwDFIAgPqS+nUy/WmWVZf5VWqA1O2lCbkQXGfFLO8KgfJ8hzDyfiKbUsq8iJJrHwqaKW/xcwpxeqD9MT3Jq282AXWvukTRH4AaW+B5L3S33GGs7IzB8enfGLlyVhofCKjx+FoCSrrL+UL54cL+fxGfRLfHLtYb9zllT3DNs3X+xX8Lq/8od+7Y3nFANFsFPY31TZC3rI/qyM9lCvquNzVuSe1Em6MVW7LFx7IOdmf9U6G84nK5/vBrc6Hfm+25DTb762TvPbQb5ZyPlcX3/D1Jl/Ufm3zSq8vLlmW1/UIDQlxuCDr9X69IEj+4yoT4yAv6vZuhBp8GS+9GSkkr/K/y3xNJUgWjc6i8fPlRdTEpyHzEsqZvKcpjrwIuV9RibL+uq3PiJLvXf/uAn+8/mjj09OXLy+/+Th+zz/ywEcvPxAJ7/8D);fillColor=none;" parent="1" vertex="1">
                    <mxGeometry x="898.0757469831196" y="459.52379499162953" width="226.54764447893416" height="218.09522356305806" as="geometry"/>
                </mxCell>
                <mxCell id="84" value="" style="shape=stencil(lZzbkt62EYSfZm9ZOB+uFec9XGUp2ooiuWQ5tt/eg2zA/dkgP+7eyb96KBCYQ/cM6Kf44bfPP//68Sm43358//bvj388//Lj81P8x1MIz18/f/z+/MP+9BR/eoofPn37/vFf37/9/vWXl//+9eeBHH/6z7f/jif8+WIX6tbqsArur5df3Fbb/3745wv+y/PXIz6G9+DLFuJ78HlzTvCtAz5tKQm+B8DHLfkD3m+O8GGLSfC+AN5vUZ///x/O8W6LXfApX+N930oVfGG8K4KvsJ++bTkLvjPeHc83zAM/x9ctVcFn2H9ftu4F32A/DR+O+xm34ACftxoFX2j9efPH9aTNVcCneZyv+ELriboe+wchXgzvvOBxf8KWjvFV5g/neD/D7xXfaT3mvsf8ULdM63F6vuZQCfGyfnNYWE+f3jvhezxcwEsUeIbd6ZoMO25On6lmjy03o+EU37bqFd8h2JvuzTgNcGbb6q74DuuxWiG5MOD22NEfd3N4K+xP3UJQfAXnKTPV7/i0BXCeshWv+Ab7Y7lEcmHG980aK75gMszL/tQZzRd4HxRPxTQt/mPBAt6ftijv27eAz3dHvFUzii47zaR42n+r1e2I9/MEL/DCNaxYJFh/1Hi0XyLEl5UewduOQbyErRxrr51gBP8MM1Xu+DLZygU+yvMr5pOg/mwZgIpd2Lzg+1Zxf/wx/0Qje0Su1H+inS+RPeWGMaA/+Jktd7wVdyIbW5fnp+mxF/gqXCPPJ1zgi+Arxovf8jFeYkN/M6p5jJfYMT/4SS12buKZbGi8JPNYOC+n8ZLi1mE/nebnlKfHXuDT0f9TwfzmlJunOld4gQ9Hf0gN67tT/89uRtAFXvw/+y3g+sX/c0B/WPGWUfG8FM9kdcXnqU7eiC8Y7+v+WL3D9ej+N8w/y/nmjuLIab4t5uF4vlnwAcWmUy1e4uZJjGj8ljTVz9vySckzgi7wwvdKwfy51JfC/CRovJeG+TNOqbVrCzfV2AVe+FX1k2Fe4PvxfWvA/UzaS6jMH5Ly1ZqmWrrge8J/akY+UzReakG+WpQf1orna/xc9r9h/q/LfnZsVjT1h2b8AfJJn9lvx1sFp3gxdzkuqMX5y1vVqTE+lssiIFtm/RuUc7fCDYioDZ1WMYmaQTl6UWuTl161LKSF0jpq7KGijrvUHfJWk1HiSN1zolu6NGZQ6R3K5kX3Bz64Mj3zwQC5U9VGUI/Y6TODXNWA2PTaWuuJvbXN6v5gQPrfDIQgmwEVTNOD0r3rGRXrKOFRDegcRs1MakA5xopU8GqARcdPDrcbFOxKWJnSXSqz73PVk3bLv0A6xRJ9KGpAxGLoQtnWiq5hqVikqBlEeummudsMKAmY1JPmhBlQ8jatJ5nPDKh1H4OWw964/EflX2ZA/HrIvagG1I2PRRlJ54pogk/awWZAEtMUX1temmpccktPsmNuNc1XnRoEODgTcRrTHWlMSsqbzQD7UHvIPxhQyTLd15aXpvpgQs4tL00Rl7r2lsyAuKpJP2nmDAP4F/LSffBuF0znFlZw4vss0pIGbhZVtAV099pLz/dmY02itWVJdHSmubS0d8yuxZ8sidpkptKUC3BElGVoYwZUUkyn6Us3HHOaUGtLZirU6i5LVDcc9JSd+j9mVzqHppPLm/xd+lKpK1Ldoe6aGlD/tK5coKB7D323VGrKTHUZH5uBp5FJ0p6f0ROi6ybx+kKxaIJpmk26Wjckboi2hVfSmKL2JWswczXZpi/N3Lh5VX7GvqnKtbAQoICtLRN6bhEE1JtrUcWxSQ6arJoyXEUNTvfS5KmPKgiyhklJzXxudmiuDPTg3BzvnxuUhcQ5TAJmIL5kWpFGOmbQF3EZ6eAWxmTytdM5WBYqahBoW/cJ8oOiJtZnKw7SRmDNbga6pIwly3Zd2wgJ0715jiRj81+ciweVryOkaDIetAJZ0JKSs5CXmyTNoUYZ6va4S5apaBw98pz0oyrOi0cmPe7STYPMDJp01PLssZ0bFKW6VjHw4Irye6tJHuLhtQQ+NEFJQQwZJl3ZPnnjuUHTNrpxAzyHpkVx9InZoB7TjPGbSM7XVLMXnvQPzSMGu2q5MpAAMtrY6B360kx37Hx9OsI0yPsjrgxkXG5cmdo5r0x7N6i8rV0lRy44cHtVC7tBvmmgns2UPLCTM4uIlfrMIvAc88Rip45vtnAYpycWiYX4mQU3OM4s6uQ5b7YoGBhnFgkL8JlFRA14ZhGQRpxZMD07s3B8FXK1uJmnr+ERG2rZNQBjxTWtIR4LjrBH1lnuKNykKWkix3SXpqQzEiNOqUYyP2b/eEM9mkrT6JHsm4FIouhm8/2qRsrBBZ5UjWbocZfGZT166brcTWp3TEKIwbh6Te9Qlpu1hd+hqHuPC2zkS1ldI9ywoaRlOyQcwI55hbxDxK6FkUwJoDFUphoZlQKOWzz0DkGdb4zpmVnLjdybW3Erd/c3BM1pu8k3vKfRnZJ9X1le79deHwyI7JuGEnXgCzYhhiYLaoDit2pTbgwFWcvKBGOMHUk4lmVJ+zzgSl7rLiVs1QwRt1yIpb722oTwfCPERJxcSRtXdGmX9jnqbsB3gEdvJ6kBNuX6cuvWAogaWkt/ygwoa5jq06Yct9iK3pPr6Bim+aQJ3viaRNR7PHyn3RSfKLSK3YHqVT5V7kE67QUXrFWmD0VXl/mRzVUnuOnzPbeaJVlkzBWlrt84kA4y9Sn9GRYpQ3we3zehg5r2lHv2CfmLSc/l+SSBStD1Rz4vP4//FU/0KC8fRURUfblpjog8ZVpmQAFZsIlOmQQHZGumOaVrH/ga1X5n5xVPDcExV9PnU2kytSlz5oDTn7zcG+ZvrPJyz8/jNdp19OhxuJQWUeGxrZyW5gp/U2YqdlkPdazGrVypq0hkh+aVgoE1zxSvXLfgb+7Swnv5m7609CW5uWB4pWco+01NyzeP/A2jaWn5ZpC/kTQlLe1qh7rA8JKvHPIm0905CJ44u6luuV/m+CpK12t+biakc3xT1eH4s5G6rofqo+FlbuNw5BGL0sRbvNP1ID5r/XLI4OIyqHJ4LdbwXveTmrXrPR1urcWgzJ6v2Rs+6vqJn0S/ni/J3PUmE9/CiG5d/w0+qz/c4GWKx/jxVc/yvoyP6j+Ib/pd3C0+6Xnd4J36G+KXy3C3+PCe8zX6295zvvff4NsfXj/g//T85cvL9/+Pf68f/NtPL/+zgPjT3w==);fillColor=none;" parent="1" vertex="1">
                    <mxGeometry x="37.00432931082609" y="156.66668483189176" width="232.38093784877233" height="245.71429661342077" as="geometry"/>
                </mxCell>
            </root>
        </mxGraphModel>
    </diagram>
</mxfile>